<svg xmlns="http://www.w3.org/2000/svg" width="19" height="31" viewBox="0 0 19 31">
  <defs>
    <style>
      .cls-1 {
        fill: #fc0;
        fill-rule: evenodd;
      }
    </style>
  </defs>
  <path id="Hikam" class="cls-1" d="M441.671,41.625c-0.329-.329-5.175-0.617-5.175-0.617l-0.039-2.066a0.161,0.161,0,0,0-.162-0.156h-1.07a41.475,41.475,0,0,0,4.09-7.491,28.781,28.781,0,0,0,1.614-8.6c0-7.446-6.087-8.7-8.429-8.7s-8.429,1.249-8.429,8.7a28.764,28.764,0,0,0,1.613,8.6,41.515,41.515,0,0,0,4.091,7.491h-1.07a0.161,0.161,0,0,0-.163.156L428.5,41.007s-4.846.288-5.175,0.617a4.693,4.693,0,0,0-.322,1.947,0.475,0.475,0,0,0,.338.467,15.152,15.152,0,0,0,2.34.59C426.358,44.67,432.5,45,432.5,45s6.142-.33,6.815-0.371a15.124,15.124,0,0,0,2.34-.59,0.477,0.477,0,0,0,.339-0.467,4.675,4.675,0,0,0-.323-1.947M432.5,20.458a2.261,2.261,0,1,0,2.292,2.26A2.276,2.276,0,0,0,432.5,20.458Zm0.048,7.75a5.49,5.49,0,1,1,5.517-5.442A5.529,5.529,0,0,1,432.548,28.208Z" transform="translate(-423 -14)"/>
</svg>
