<?xml version="1.0" encoding="UTF-8"?>
<svg width="175px" height="64px" viewBox="0 0 175 64" version="1.1" xmlns="http://www.w3.org/2000/svg" xmlns:xlink="http://www.w3.org/1999/xlink">
    <!-- Generator: Sketch 57.1 (83088) - https://sketch.com -->
    <title>hikam_logo</title>
    <desc>Created with Sketch.</desc>
    <g id="Symbols" stroke="none" stroke-width="1" fill="none" fill-rule="evenodd">
        <g id="Logo">
            <g id="hikam_logo">
                <path d="M49.1449541,0 C51.7284404,0 54.3119266,0.587155963 56.4256881,1.70275229 C57.6587156,2.40733945 58.8917431,3.28807339 59.8899083,4.28623853 C60.8880734,5.28440367 61.6513761,6.4 62.3559633,7.69174312 C63.5302752,9.80550459 64,12.2715596 64,14.8550459 L64,49.2036697 C64,51.787156 63.5302752,54.3706422 62.3559633,56.4844037 C61.6513761,57.7174312 60.8293578,58.9504587 59.8899083,59.9486239 C58.9504587,60.8880734 57.6587156,61.7688073 56.4256881,62.4146789 C54.253211,63.6477064 51.787156,64 49.1449541,64 L14.8550459,64 C12.2715596,64 9.6293578,63.5889908 7.51559633,62.4146789 C6.28256881,61.7100917 5.10825688,60.946789 4.11009174,59.9486239 C3.11192661,58.9504587 2.23119266,57.7174312 1.5853211,56.4844037 C0.411009174,54.3706422 0,51.787156 0,49.2036697 L0,14.7963303 C0,12.2715596 0.528440367,9.74678899 1.5853211,7.63302752 C2.23119266,6.4 3.11192661,5.28440367 4.11009174,4.28623853 C5.10825688,3.28807339 6.22385321,2.40733945 7.51559633,1.76146789 C9.68807339,0.587155963 12.212844,0 14.8550459,0 L49.1449541,0 Z M49.0271739,28 C46.8654891,28 45.0543478,29.7647059 45.0543478,32 L45.0543478,32 L45.0543478,44 L45.0591405,44.1968478 C45.1610023,46.285313 46.8743412,48 49.0271739,48 C51.1888587,48 53,46.2352941 53,44 L53,44 L53,32 C53,29.7647059 51.2472826,28 49.0271739,28 Z M34.5964674,16 C32.4347826,16 30.6236413,17.7647059 30.6236413,20 L30.6236413,20 L30.6236413,24 C30.6236413,26.1764706 28.8709239,28 26.6508152,28 L26.6508152,28 L23.4959239,28 L23.3004134,28.0048254 C21.2261361,28.107384 19.5230978,29.8324421 19.5230978,32 C19.5230978,34.1764706 21.2758152,36 23.4959239,36 L23.4959239,36 L26.7092391,36 L26.9047496,36.0048254 C28.9790269,36.107384 30.6820652,37.8324421 30.6820652,40 L30.6820652,40 L30.6820652,44 L30.6868579,44.1968478 C30.7887197,46.285313 32.5020586,48 34.6548913,48 C36.875,48 38.6861413,46.2352941 38.5692935,44.0588235 L38.5692935,44.0588235 L38.5692935,20 C38.5692935,17.8235294 36.8165761,16 34.5964674,16 Z M13.9728261,16 C11.8111413,16 10,17.7647059 10,20 L10,20 L10,44 C10,46.1764706 11.7527174,48 13.9728261,48 C16.1929348,48 17.9456522,46.2352941 17.9456522,44.0588235 L17.9456522,44.0588235 L17.9456522,20 C17.9456522,17.8235294 16.1929348,16 13.9728261,16 Z M49.0271739,17.5882353 C46.8654891,17.5882353 45.0543478,19.3529412 45.0543478,21.5882353 C45.0543478,23.7647059 46.8070652,25.5882353 49.0271739,25.5882353 C51.1888587,25.5882353 53,23.7647059 53,21.5882353 C53,19.3529412 51.2472826,17.5882353 49.0271739,17.5882353 Z" id="Combined-Shape" fill="#FFCC00"></path>
                <path d="M133.717949,48 C131.959707,48 130.553114,46.5882353 130.553114,44.8235294 L130.553114,44.8235294 C130.553114,43.0588235 129.14652,41.5882353 127.32967,41.5882353 L127.32967,41.5882353 L117.717949,41.5882353 C115.959707,41.5882353 114.494505,40.1764706 114.494505,38.3529412 C114.494505,36.5882353 115.901099,35.1176471 117.717949,35.1176471 L127.32967,35.1176471 C129.087912,35.1176471 130.553114,33.7058824 130.553114,31.8823529 C130.553114,31.8823529 130.553114,31.8823529 130.553114,31.8823529 C130.553114,26.5882353 126.274725,22.2941176 121,22.2941176 C115.725275,22.2941176 111.446886,26.5882353 111.446886,31.9411765 L111.446886,44.7647059 C111.446886,46.5294118 110.040293,48 108.223443,48 C106.465201,48 105,46.5882353 105,44.7647059 L105,32 C105,23.1764706 112.150183,16 121,16 C129.791209,16 137,23.1764706 137,32 L137,44.8235294 C136.882784,46.5882353 135.47619,48 133.717949,48 Z" id="Path" fill="#000000"></path>
                <path d="M92.5752033,32.0292505 C96.4654472,34.9542962 99,39.5758684 99,44.7824497 C99,46.5374771 97.5853659,48 95.7581301,48 C93.9898374,48 92.5752033,46.5959781 92.5752033,44.7824497 C92.5752033,39.5173675 88.2723577,35.2468007 82.9085366,35.2468007 L82.9085366,35.2468007 C81.1402439,35.2468007 79.6666667,33.8427788 79.6666667,32.0292505 C79.6666667,30.274223 81.0813008,28.8117002 82.9085366,28.8117002 C88.2134146,28.8117002 92.5752033,24.5411335 92.5752033,19.2175503 C92.5752033,17.4625229 93.9898374,16 95.7581301,16 C97.5264228,16 99,17.4040219 99,19.2175503 C98.9410569,24.4826325 96.4654472,29.1042048 92.5752033,32.0292505 Z M73.2418699,47.9414991 C71.4735772,47.9414991 70,46.5374771 70,44.7239488 L70,19.2760512 C70,17.5210238 71.4146341,16.0585009 73.2418699,16.0585009 C75.0101626,16.0585009 76.4837398,17.4625229 76.4837398,19.2760512 L76.4837398,44.7824497 C76.4837398,46.5374771 75.0691057,47.9414991 73.2418699,47.9414991 Z" id="Shape" fill="#000000" fill-rule="nonzero"></path>
                <path d="M171.829358,47.8829982 C170.06789,47.8829982 168.658716,46.4789762 168.658716,44.6654479 L168.658716,31.9707495 C168.658716,26.7056673 164.372477,22.3765996 159.029358,22.3765996 C153.686239,22.3765996 149.4,26.6471664 149.4,31.9707495 L149.4,44.7239488 C149.4,46.4789762 147.990826,47.9414991 146.170642,47.9414991 C144.409174,47.9414991 143,46.5374771 143,44.7239488 L143,31.9707495 C143,23.1956124 150.163303,16 159.029358,16 C167.895413,16 175,23.1371115 175,31.9707495 L175,44.7239488 C175,46.4789762 173.590826,47.8829982 171.829358,47.8829982 Z M159.029358,28.8117002 C160.790826,28.8117002 162.258716,30.2157221 162.258716,32.0292505 L162.258716,44.7824497 C162.258716,46.5374771 160.849541,48 159.029358,48 C157.26789,48 155.8,46.5959781 155.8,44.7824497 L155.8,31.9707495 C155.8,30.2157221 157.26789,28.8117002 159.029358,28.8117002 Z" id="Shape" fill="#000000" fill-rule="nonzero"></path>
            </g>
        </g>
    </g>
</svg>